<svg width="109" height="109" viewBox="0 0 109 109" fill="none" xmlns="http://www.w3.org/2000/svg">
<path d="M104.995 50.6693H95.9409C94.0256 30.8195 78.1805 14.9744 58.5048 13.0591V4.00479C58.5048 1.91534 56.7636 0 54.5 0C52.4105 0 50.4952 1.74121 50.4952 4.00479V13.0591C30.8195 14.9744 14.9744 30.8195 13.0591 50.6693H4.00479C1.91534 50.6693 0 52.4105 0 54.6741C0 56.7636 1.74121 58.6789 4.00479 58.6789H13.0591C14.9744 78.5288 30.8195 94.3738 50.6693 96.2891V104.995C50.6693 107.085 52.4105 109 54.6741 109C56.7636 109 58.6789 107.259 58.6789 104.995V95.9409C78.5288 94.0256 94.3738 78.1805 96.2891 58.3307H104.995C107.085 58.3307 109 56.5895 109 54.3259C109 52.4105 107.085 50.6693 104.995 50.6693ZM58.5048 88.1054V86.7125C58.5048 84.623 56.7636 82.7077 54.5 82.7077C52.4105 82.7077 50.4952 84.4489 50.4952 86.7125V88.1054C34.9984 86.3642 22.6358 74.0016 20.8946 58.5048H22.2875C24.377 58.5048 26.2923 56.7636 26.2923 54.5C26.2923 52.4105 24.5511 50.4952 22.2875 50.4952H20.8946C22.6358 34.9984 34.9984 22.6358 50.4952 20.8946V22.2875C50.4952 24.377 52.2364 26.2923 54.5 26.2923C56.5895 26.2923 58.5048 24.5511 58.5048 22.2875V20.8946C74.0016 22.6358 86.3642 34.9984 88.1054 50.4952H86.7125C84.623 50.4952 82.7077 52.2364 82.7077 54.5C82.7077 56.5895 84.4489 58.5048 86.7125 58.5048H88.1054C86.1901 74.0016 74.0016 86.1901 58.5048 88.1054Z" fill="black"/>
<path d="M58.8533 50.6691H50.1472C48.7542 50.6691 47.5354 49.6244 47.5354 48.4055C47.5354 47.1867 48.7542 46.142 50.1472 46.142H63.0322C65.1216 46.142 67.037 44.4007 67.037 42.1372C67.037 39.8736 65.2957 38.1324 63.0322 38.1324H59.5497C59.5497 36.0429 57.8085 34.3017 55.7191 34.3017C53.6296 34.3017 51.8884 36.0429 51.8884 38.1324H50.3213C44.5753 38.1324 39.874 42.6595 39.874 48.2314C39.874 53.8033 44.5753 58.3305 50.3213 58.3305H59.0274C60.4203 58.3305 61.6392 59.3752 61.6392 60.594C61.6392 61.8129 60.4203 62.8576 59.0274 62.8576H44.4012C42.3117 62.8576 40.3964 64.5988 40.3964 66.8624C40.3964 69.126 42.1376 70.8672 44.4012 70.8672H52.0625C52.0625 72.9567 53.8037 74.6979 55.8932 74.6979C57.9826 74.6979 59.7239 72.9567 59.7239 70.8672C65.1216 70.519 69.4747 66.1659 69.4747 60.7682C69.3005 55.1963 64.5993 50.6691 58.8533 50.6691Z" fill="black"/>
</svg>
