<svg width="91" height="111" viewBox="0 0 91 111" fill="none" xmlns="http://www.w3.org/2000/svg">
<path d="M84.7871 68.0145L83.3253 67.2797L85.1526 66.1775C88.8072 63.9731 90.8173 60.1154 90.8173 55.7067C90.8173 51.4816 88.4418 47.6239 84.7871 45.4195L80.9498 43.2151L85.1526 40.6434C88.8072 38.439 90.8173 34.5813 90.8173 30.1725C90.8173 25.9475 88.4418 22.0898 84.7871 20.0691L51.7128 1.51552C48.0582 -0.505172 43.49 -0.505172 40.0181 1.51552L6.03012 21.355C2.3755 23.5594 0.182731 27.417 0.182731 31.6421C0.182731 35.8672 2.3755 39.9086 6.03012 41.9293L10.0502 44.3173L6.03012 46.7054C2.3755 48.9098 0.182731 52.7675 0.182731 56.9925C0.182731 61.2176 2.3755 65.259 6.03012 67.2797L7.6747 68.1982L6.03012 69.1167C2.3755 71.3211 0 75.1787 0 79.4038C0 83.8126 2.19277 87.6702 5.84739 89.6909L39.4699 109.347C41.2972 110.449 43.3072 111 45.5 111C47.6928 111 49.8855 110.449 51.7128 109.163L85.3353 88.5887C88.99 86.3844 91 82.5267 91 78.1179C90.8173 73.8928 88.6245 70.0352 84.7871 68.0145ZM8.22289 31.6421C8.22289 31.091 8.40562 29.4377 10.0502 28.5192L44.0382 8.67977C45.1345 7.94497 46.5964 7.94497 47.6928 8.67977L80.9498 27.2333C82.5944 28.1518 82.7771 29.8051 82.7771 30.3562C82.7771 30.9073 82.5944 32.5606 80.9498 33.6628L47.51 54.4208C46.4136 55.1556 44.9518 55.1556 43.6727 54.4208L10.0502 34.765C8.40562 33.8465 8.22289 32.1932 8.22289 31.6421ZM10.0502 53.8697L18.0904 49.0935L39.4699 61.585C41.2972 62.6872 43.3072 63.2383 45.5 63.2383C47.6928 63.2383 49.8855 62.6872 51.7128 61.4013L72.9096 48.3587L80.7671 52.7675C82.4116 53.686 82.5944 55.3393 82.5944 55.8904C82.5944 56.4415 82.4116 58.0947 80.7671 59.1969L47.51 79.7712C46.4136 80.506 44.9518 80.506 43.6727 79.7712L10.0502 60.1154C8.40562 59.1969 8.22289 57.5436 8.22289 56.9925C8.22289 56.4415 8.40562 54.7882 10.0502 53.8697ZM80.9498 81.6082L47.51 102.366C46.4136 103.101 44.9518 103.101 43.6727 102.366L10.0502 82.7104C8.40562 81.7919 8.22289 80.1386 8.22289 79.5875C8.22289 79.0364 8.40562 77.3831 10.0502 76.4646L15.7149 73.158L39.6526 87.1192C41.4799 88.2213 43.49 88.7724 45.6827 88.7724C47.8755 88.7724 50.0683 88.2213 51.8956 86.9354L75.4679 72.4232L80.9498 75.3624C82.5944 76.2809 82.7771 77.9342 82.7771 78.4853C82.7771 79.0364 82.5944 80.6897 80.9498 81.6082Z" fill="black"/>
</svg>
