<svg width="73" height="105" viewBox="0 0 73 105" fill="none" xmlns="http://www.w3.org/2000/svg">
<g id="Group 1">
<path id="Vector" d="M49.717 48.6755H23.458C14.8801 48.6755 7.70264 42.0695 7.70264 33.899C7.70264 25.7285 14.705 19.1225 23.458 19.1225H62.1463C64.247 19.1225 65.9976 17.3841 65.9976 15.298C65.9976 13.2119 64.247 11.4735 62.1463 11.4735H43.9401V3.8245C43.9401 1.73841 42.1894 0 40.0887 0C37.988 0 36.2374 1.73841 36.2374 3.8245V11.1258H23.6331C10.6787 11.1258 0 21.2086 0 33.7252C0 46.2417 10.5036 56.3245 23.6331 56.3245H49.8921C58.47 56.3245 65.6475 62.9305 65.6475 71.101C65.6475 79.2715 58.6451 85.8775 49.8921 85.8775H5.42686C3.32614 85.8775 1.57554 87.6159 1.57554 89.702C1.57554 91.7881 3.32614 93.5265 5.42686 93.5265H36.0624V101.175C36.0624 103.262 37.813 105 39.9137 105C42.0144 105 43.765 103.262 43.765 101.175V93.8742H49.3669C62.3213 93.8742 73 83.7914 73 71.2748C73 58.7583 62.6715 48.6755 49.717 48.6755Z" fill="black"/>
</g>
</svg>
