<svg width="124" height="114" viewBox="0 0 124 114" fill="none" xmlns="http://www.w3.org/2000/svg">
<path d="M122.989 82.516C120.742 75.5697 113.387 71.688 106.441 73.5267L81.7202 79.4515C81.1073 73.5267 76.4084 68.6235 69.8708 67.602H43.7203C41.6773 64.5375 38.4085 62.4945 34.3225 62.4945H12.8709C5.92472 62.4945 0 68.2149 0 75.3654V100.699C0 107.645 5.72042 113.57 12.8709 113.57H34.3225C37.387 113.57 40.4515 112.344 42.4945 110.097C42.9031 109.688 43.1074 109.279 43.516 108.871C49.4407 111.731 55.7741 113.365 62.1074 113.365C65.9891 113.365 69.8708 112.752 73.5482 111.731L104.806 102.333L113.591 99.6772C117.064 98.6557 120.129 96.4084 121.967 93.1396C123.806 90.0751 124.215 86.1934 122.989 82.516ZM35.9569 103.15C35.5483 103.559 34.9354 103.763 34.3225 103.763H12.8709C10.8279 103.763 9.19353 102.129 9.19353 100.086V74.9568C9.19353 72.9138 10.8279 71.2794 12.8709 71.2794H34.7311C35.7526 71.2794 36.5698 72.0966 36.5698 73.1181V101.72C36.5698 102.537 36.1612 102.946 35.9569 103.15ZM114 88.8493C113.387 89.8708 112.57 90.688 111.344 90.8923L102.355 93.5482L71.3009 102.333C63.3332 104.58 54.9569 103.763 47.602 100.086L45.7633 99.0643V76.5913H69.2579C71.5052 76.9999 72.9353 78.6343 72.9353 80.473V81.4945L65.9891 83.1289C63.5375 83.7418 61.9031 86.1934 62.516 88.645C63.1289 91.0966 65.5805 92.731 68.0321 92.1181L108.892 82.3117C111.14 81.6988 113.591 82.9246 114.408 85.1719C114.613 86.3977 114.613 87.8278 114 88.8493Z" fill="black"/>
<path d="M93.1612 35.344H103.581C106.645 35.344 109.301 37.9999 109.301 41.0644C109.301 44.1289 106.645 46.7848 103.581 46.7848H87.8494C85.3978 46.7848 83.1505 48.8278 83.1505 51.4838C83.1505 54.1397 85.1935 56.1827 87.8494 56.1827H93.5698V56.7956C93.5698 59.2472 95.6128 61.4945 98.2687 61.4945C100.925 61.4945 102.968 59.4515 102.968 56.7956V56.1827H103.581C111.753 56.1827 118.494 49.4407 118.494 41.2687C118.494 33.0967 111.753 26.3548 103.581 26.3548H93.1612C90.0967 26.3548 87.4408 23.6989 87.4408 20.6344C87.4408 17.5699 90.0967 14.9139 93.1612 14.9139H108.688C111.14 14.9139 113.387 12.8709 113.387 10.215C113.387 7.55912 111.344 5.51612 108.688 5.51612H102.968V4.69891C102.968 2.24731 100.925 0 98.2687 0C95.6128 0 93.5698 2.04301 93.5698 4.69891V5.31182H92.9569C84.7849 5.31182 78.043 12.0537 78.043 20.2258C78.2473 28.6021 84.9892 35.344 93.1612 35.344Z" fill="black"/>
</svg>
