<svg width="84" height="101" viewBox="0 0 84 101" fill="none" xmlns="http://www.w3.org/2000/svg">
<path d="M75.2141 9L45.2279 0.5C43.0741 -0.166667 40.7548 -0.166667 38.6011 0.5L8.94617 9C3.64474 10.5 0 15.3333 0 20.8333V45.1667C0 69.5 14.7446 91 37.7727 100.167C39.0981 100.667 40.5891 101 42.0801 101C43.5712 101 45.0622 100.667 46.3875 100.167C69.25 91 83.9946 69.5 83.9946 45.1667V20.8333C84.1602 15.3333 80.5155 10.5 75.2141 9ZM76.7051 45.1667C76.7051 66.3333 63.7829 85.1667 43.7368 93.1667C42.7428 93.5 41.5831 93.5 40.5891 93.1667C20.5431 85.1667 7.62081 66.3333 7.62081 45.1667V20.8333C7.62081 18.6667 9.11184 16.8333 11.0999 16.1667L40.7548 7.83333C41.2518 7.66667 41.5831 7.66667 42.0801 7.66667C42.5771 7.66667 42.9085 7.66667 43.4055 7.83333L73.3917 16.3333C75.3798 16.8333 76.8708 18.8333 76.8708 21V45.1667H76.7051Z" fill="black"/>
</svg>
