<svg width="119" height="119" viewBox="0 0 119 119" fill="none" xmlns="http://www.w3.org/2000/svg">
<path d="M59.5002 32.7935C44.7725 32.7935 32.7939 44.772 32.7939 59.4997C32.7939 74.2275 44.7725 86.206 59.5002 86.206C74.2279 86.206 86.2065 74.2275 86.2065 59.4997C86.2065 44.772 74.2279 32.7935 59.5002 32.7935ZM59.5002 77.3694C49.6817 77.3694 41.6306 69.3182 41.6306 59.4997C41.6306 49.6813 49.6817 41.6301 59.5002 41.6301C69.3187 41.6301 77.3699 49.6813 77.3699 59.4997C77.3699 69.3182 69.3187 77.3694 59.5002 77.3694Z" fill="black"/>
<path d="M59.4999 18.8515C61.8563 18.8515 64.0164 16.8878 64.0164 14.335V4.5165C64.0164 2.16007 62.0527 0 59.4999 0C57.1435 0 54.9834 1.9637 54.9834 4.5165V14.5314C55.1798 16.8878 57.1435 18.8515 59.4999 18.8515Z" fill="black"/>
<path d="M59.4999 100.149C57.1435 100.149 54.9834 102.112 54.9834 104.665V114.484C54.9834 116.84 56.9471 119 59.4999 119C61.8563 119 64.0164 117.036 64.0164 114.484V104.469C64.0164 102.112 61.8563 100.149 59.4999 100.149Z" fill="black"/>
<path d="M91.5084 32.0084C92.6866 32.0084 93.8649 31.6156 94.6503 30.6338L100.934 24.35C102.701 22.5826 102.701 19.8335 100.934 18.0661C99.1668 16.2988 96.4177 16.2988 94.6503 18.0661L88.3665 24.35C86.5992 26.1173 86.5992 28.8665 88.3665 30.6338C89.152 31.6156 90.3302 32.0084 91.5084 32.0084Z" fill="black"/>
<path d="M24.5458 88.3661L18.262 94.4536C16.4947 96.2209 16.4947 98.9701 18.262 100.737C19.0475 101.523 20.2257 102.112 21.4039 102.112C22.5822 102.112 23.7604 101.719 24.5458 100.737L30.8297 94.4536C32.597 92.6863 32.597 89.9371 30.8297 88.1698C29.0623 86.5988 26.1168 86.5988 24.5458 88.3661Z" fill="black"/>
<path d="M114.484 55.1797H104.469C102.112 55.1797 99.9521 57.1434 99.9521 59.6962C99.9521 62.0527 101.916 64.2128 104.469 64.2128H114.484C116.84 64.2128 119 62.2491 119 59.6962C119 57.1434 116.84 55.1797 114.484 55.1797Z" fill="black"/>
<path d="M18.8515 59.5C18.8515 57.1436 16.8878 54.9835 14.335 54.9835H4.5165C2.16007 54.9835 0 56.9472 0 59.5C0 61.8564 1.9637 64.0165 4.5165 64.0165H14.5314C16.8878 64.0165 18.8515 61.8564 18.8515 59.5Z" fill="black"/>
<path d="M94.4541 88.3661C92.6867 86.5988 89.9375 86.5988 88.1702 88.3661C86.4029 90.1334 86.4029 92.8826 88.1702 94.6499L94.4541 100.934C95.2395 101.719 96.4178 102.308 97.596 102.308C98.7742 102.308 99.9524 101.916 100.738 100.934C102.505 99.1664 102.505 96.4172 100.738 94.6499L94.4541 88.3661Z" fill="black"/>
<path d="M24.5458 18.2624C22.7785 16.4951 20.0293 16.4951 18.262 18.2624C16.4947 20.0297 16.4947 22.7789 18.262 24.5462L24.5458 30.83C25.3313 31.6155 26.5095 32.2046 27.6878 32.2046C28.866 32.2046 30.0442 31.8119 30.8297 30.83C32.597 29.0627 32.597 26.3135 30.8297 24.5462L24.5458 18.2624Z" fill="black"/>
</svg>
