<svg width="24" height="24" viewBox="0 0 24 24" fill="none" xmlns="http://www.w3.org/2000/svg">
<path d="M22.5 9.86269C22.05 9.86269 21.6375 10.2377 21.6375 10.7252V17.7752C21.6375 19.2377 20.55 20.4002 19.2 20.4002H4.79995C3.41245 20.4002 2.36245 19.2377 2.36245 17.7752V10.6877C2.36245 10.2377 1.98745 9.8252 1.49995 9.8252C1.01245 9.8252 0.637451 10.2002 0.637451 10.6877V17.7377C0.637451 20.1002 2.47495 22.0502 4.76245 22.0502H19.2C21.4875 22.0502 23.325 20.1377 23.325 17.7377V10.6877C23.3625 10.2377 22.95 9.86269 22.5 9.86269Z" fill="black"/>
<path d="M11.3999 15.4502C11.5499 15.6002 11.7749 15.7127 11.9999 15.7127C12.2249 15.7127 12.4124 15.6377 12.5999 15.4502L17.1749 10.9127C17.5124 10.5752 17.5124 10.0502 17.1749 9.7127C16.8374 9.3752 16.3124 9.3752 15.9749 9.7127L12.8624 12.7877V2.8127C12.8624 2.3627 12.4874 1.9502 11.9999 1.9502C11.5499 1.9502 11.1374 2.3252 11.1374 2.8127V12.8627L8.0249 9.7502C7.6874 9.41269 7.1624 9.41269 6.8249 9.7502C6.4874 10.0877 6.4874 10.6127 6.8249 10.9502L11.3999 15.4502Z" fill="black"/>
</svg>
