<svg width="14" height="24" viewBox="0 0 14 24" fill="none" xmlns="http://www.w3.org/2000/svg">
<path d="M13.6074 12.1289C13.6074 12.4707 13.4707 12.7715 13.2109 13.0312L2.38281 23.627C2.13672 23.873 1.83594 23.9961 1.48047 23.9961C0.783203 23.9961 0.236328 23.4629 0.236328 22.752C0.236328 22.3965 0.373047 22.0957 0.591797 21.8633L10.5449 12.1289L0.591797 2.39453C0.373047 2.16211 0.236328 1.84766 0.236328 1.50586C0.236328 0.794922 0.783203 0.261719 1.48047 0.261719C1.83594 0.261719 2.13672 0.384766 2.38281 0.617188L13.2109 11.2266C13.4707 11.4727 13.6074 11.7871 13.6074 12.1289Z" fill="black"/>
</svg>
