<svg width="24" height="19" viewBox="0 0 24 19" fill="none" xmlns="http://www.w3.org/2000/svg">
<path d="M8.45626 13.2375C8.04376 13.65 8.04376 14.4 8.45626 14.8125C8.86876 15.225 9.61876 15.225 10.0313 14.8125L17.1563 7.6875C18.0563 6.7875 19.4438 6.7875 20.3063 7.6875C21.2063 8.5875 21.2063 9.975 20.3063 10.8375L13.3313 17.85C14.2313 18.75 15.6188 18.75 16.4813 17.85L21.9188 12.4125C23.6438 10.6875 23.6438 7.8375 21.9188 6.0375C20.1938 4.3125 17.3438 4.3125 15.5438 6.0375L8.45626 13.2375ZM19.5563 8.475C19.1438 8.0625 18.3938 8.0625 17.9813 8.475L10.8563 15.6375C9.95626 16.5375 8.56876 16.5375 7.70626 15.6375C7.29376 15.225 6.54376 15.225 6.13126 15.6375C5.71876 16.05 5.71876 16.8 6.13126 17.2125C7.85626 18.9375 10.7063 18.9375 12.5063 17.2125L19.5938 10.0875C19.9688 9.6375 19.9688 8.8875 19.5563 8.475ZM7.66876 12.4125L14.7938 5.2875C15.2063 4.875 15.2063 4.125 14.7938 3.7125C14.3813 3.3 13.6313 3.3 13.2188 3.7125L6.05626 10.8375C5.15626 11.7375 3.76876 11.7375 2.90625 10.8375C2.00625 9.9375 2.00625 8.5125 2.90625 7.6125L9.88126 0.675C8.98126 -0.225 7.59376 -0.225 6.73126 0.675L1.29375 6.1125C-0.43125 7.8375 -0.43125 10.6875 1.29375 12.4875C3.01875 14.2125 5.94376 14.2125 7.66876 12.4125ZM3.73126 10.05C4.14376 10.4625 4.89376 10.4625 5.30626 10.05L12.4688 2.925C13.3688 2.025 14.7563 2.025 15.6188 2.925C16.0313 3.3375 16.7813 3.3375 17.1938 2.925C17.6063 2.5125 17.6063 1.7625 17.1938 1.35C15.4688 -0.375 12.6188 -0.375 10.8188 1.35L3.69376 8.475C3.24375 8.8875 3.24375 9.6375 3.73126 10.05Z" fill="#313131"/>
</svg>
