<svg width="17" height="25" viewBox="0 0 17 25" fill="none" xmlns="http://www.w3.org/2000/svg">
<mask id="path-1-inside-1_180_12" fill="white">
<path d="M11.5779 11.5894H5.46283C3.46523 11.5894 1.79376 10.0166 1.79376 8.07119C1.79376 6.12583 3.42446 4.55298 5.46283 4.55298H14.4724C14.9616 4.55298 15.3693 4.13907 15.3693 3.64238C15.3693 3.1457 14.9616 2.73179 14.4724 2.73179H10.2326V0.910596C10.2326 0.413907 9.82494 0 9.33573 0C8.84652 0 8.43885 0.413907 8.43885 0.910596V2.64901H5.5036C2.48681 2.64901 0 5.04967 0 8.0298C0 11.0099 2.44604 13.4106 5.5036 13.4106H11.6187C13.6163 13.4106 15.2878 14.9834 15.2878 16.9288C15.2878 18.8742 13.6571 20.447 11.6187 20.447H1.26379C0.77458 20.447 0.366906 20.8609 0.366906 21.3576C0.366906 21.8543 0.77458 22.2682 1.26379 22.2682H8.39808V24.0894C8.39808 24.5861 8.80576 25 9.29497 25C9.78417 25 10.1918 24.5861 10.1918 24.0894V22.351H11.4964C14.5132 22.351 17 19.9503 17 16.9702C17 13.9901 14.5947 11.5894 11.5779 11.5894Z"/>
</mask>
<path d="M11.5779 11.5894H5.46283C3.46523 11.5894 1.79376 10.0166 1.79376 8.07119C1.79376 6.12583 3.42446 4.55298 5.46283 4.55298H14.4724C14.9616 4.55298 15.3693 4.13907 15.3693 3.64238C15.3693 3.1457 14.9616 2.73179 14.4724 2.73179H10.2326V0.910596C10.2326 0.413907 9.82494 0 9.33573 0C8.84652 0 8.43885 0.413907 8.43885 0.910596V2.64901H5.5036C2.48681 2.64901 0 5.04967 0 8.0298C0 11.0099 2.44604 13.4106 5.5036 13.4106H11.6187C13.6163 13.4106 15.2878 14.9834 15.2878 16.9288C15.2878 18.8742 13.6571 20.447 11.6187 20.447H1.26379C0.77458 20.447 0.366906 20.8609 0.366906 21.3576C0.366906 21.8543 0.77458 22.2682 1.26379 22.2682H8.39808V24.0894C8.39808 24.5861 8.80576 25 9.29497 25C9.78417 25 10.1918 24.5861 10.1918 24.0894V22.351H11.4964C14.5132 22.351 17 19.9503 17 16.9702C17 13.9901 14.5947 11.5894 11.5779 11.5894Z" fill="#313131"/>
<path d="M10.2326 2.73179H6.23261V6.73179H10.2326V2.73179ZM8.43885 2.64901V6.64901H12.4388V2.64901H8.43885ZM8.39808 22.2682H12.3981V18.2682H8.39808V22.2682ZM10.1918 22.351V18.351H6.19185V22.351H10.1918ZM11.5779 7.5894H5.46283V15.5894H11.5779V7.5894ZM5.46283 7.5894C5.52191 7.5894 5.58494 7.61285 5.63919 7.66457C5.69881 7.7214 5.79377 7.86355 5.79377 8.07119H-2.20623C-2.20623 12.4039 1.43857 15.5894 5.46283 15.5894V7.5894ZM5.79377 8.07119C5.79377 8.24864 5.71224 8.393 5.63497 8.46723C5.56011 8.53914 5.48729 8.55298 5.46283 8.55298V0.55298C1.3683 0.55298 -2.20623 3.76675 -2.20623 8.07119H5.79377ZM5.46283 8.55298H14.4724V0.55298H5.46283V8.55298ZM14.4724 8.55298C17.2278 8.55298 19.3693 6.29076 19.3693 3.64238H11.3693C11.3693 1.98738 12.6955 0.55298 14.4724 0.55298V8.55298ZM19.3693 3.64238C19.3693 0.994006 17.2278 -1.26821 14.4724 -1.26821V6.73179C12.6955 6.73179 11.3693 5.29738 11.3693 3.64238H19.3693ZM14.4724 -1.26821H10.2326V6.73179H14.4724V-1.26821ZM14.2326 2.73179V0.910596H6.23261V2.73179H14.2326ZM14.2326 0.910596C14.2326 -1.73779 12.0911 -4 9.33573 -4V4C7.5588 4 6.23261 2.56561 6.23261 0.910596H14.2326ZM9.33573 -4C6.58038 -4 4.43885 -1.73779 4.43885 0.910596H12.4388C12.4388 2.56561 11.1127 4 9.33573 4V-4ZM4.43885 0.910596V2.64901H12.4388V0.910596H4.43885ZM8.43885 -1.35099H5.5036V6.64901H8.43885V-1.35099ZM5.5036 -1.35099C0.37825 -1.35099 -4 2.74128 -4 8.0298H4C4 7.35806 4.59537 6.64901 5.5036 6.64901V-1.35099ZM-4 8.0298C-4 13.2993 0.317969 17.4106 5.5036 17.4106V9.4106C4.57412 9.4106 4 8.72059 4 8.0298H-4ZM5.5036 17.4106H11.6187V9.4106H5.5036V17.4106ZM11.6187 17.4106C11.5596 17.4106 11.4966 17.3871 11.4423 17.3354C11.3827 17.2786 11.2878 17.1365 11.2878 16.9288H19.2878C19.2878 12.5961 15.643 9.4106 11.6187 9.4106V17.4106ZM11.2878 16.9288C11.2878 16.7514 11.3693 16.607 11.4466 16.5328C11.5214 16.4609 11.5942 16.447 11.6187 16.447V24.447C15.7132 24.447 19.2878 21.2333 19.2878 16.9288H11.2878ZM11.6187 16.447H1.26379V24.447H11.6187V16.447ZM1.26379 16.447C-1.49157 16.447 -3.63309 18.7092 -3.63309 21.3576H4.36691C4.36691 23.0126 3.04073 24.447 1.26379 24.447V16.447ZM-3.63309 21.3576C-3.63309 24.006 -1.49156 26.2682 1.26379 26.2682V18.2682C3.04072 18.2682 4.36691 19.7026 4.36691 21.3576H-3.63309ZM1.26379 26.2682H8.39808V18.2682H1.26379V26.2682ZM4.39808 22.2682V24.0894H12.3981V22.2682H4.39808ZM4.39808 24.0894C4.39808 26.7378 6.53961 29 9.29497 29V21C11.0719 21 12.3981 22.4344 12.3981 24.0894H4.39808ZM9.29497 29C12.0503 29 14.1918 26.7378 14.1918 24.0894H6.19185C6.19185 22.4344 7.51802 21 9.29497 21V29ZM14.1918 24.0894V22.351H6.19185V24.0894H14.1918ZM10.1918 26.351H11.4964V18.351H10.1918V26.351ZM11.4964 26.351C16.6218 26.351 21 22.2587 21 16.9702H13C13 17.6419 12.4046 18.351 11.4964 18.351V26.351ZM21 16.9702C21 11.7588 16.7817 7.5894 11.5779 7.5894V15.5894C12.4078 15.5894 13 16.2213 13 16.9702H21Z" fill="#313131" mask="url(#path-1-inside-1_180_12)"/>
</svg>
