<svg width="433" height="289" viewBox="0 0 433 289" fill="none" xmlns="http://www.w3.org/2000/svg">
<path d="M432 221.59V288H338.034M432 221.59V127.606M432 221.59H338.034M432 127.606V1H403.267V6.04871H327.939V1H267.366M432 127.606H338.034M320.561 127.606H338.034M338.034 221.59V194.405M338.034 221.59V236.348M338.034 127.606V155.18M267.366 1H194.368V6.04871H91.0829V1H1V288H162.916M267.366 1V127.606M267.366 127.606H285.615H292.216M267.366 127.606V183.53H247.563M198.25 183.53H162.916V288M162.916 288H338.034M338.034 288V273.242" stroke="black"/>
<path d="M75 14C125.725 36.3587 155.587 35.6549 211 14" stroke="#FF7B7B"/>
<path d="M307 13C348.774 30.6094 373.366 30.0551 419 13" stroke="#FF7B7B"/>
<path d="M346 216C363.157 207.873 373.257 208.128 392 216" stroke="#FF7B7B"/>
<path d="M75 19C125.725 41.3587 155.587 40.6549 211 19" stroke="#FF7B7B"/>
<path d="M307 17C348.774 35.9639 373.366 35.367 419 17" stroke="#FF7B7B"/>
<path d="M346 214C363.157 205.873 373.257 206.128 392 214" stroke="#FF7B7B"/>
</svg>
