<svg width="533" height="348" viewBox="0 0 533 348" fill="none" xmlns="http://www.w3.org/2000/svg">
<path d="M361 275H258.5M361 275V292.5M361 275V48.5V44M139.5 1H88.5V9H39V1H1V204.5M139.5 1H214V9H291.5V1H361V44M139.5 1V204.5M170.5 275H139.5V204.5M361 336V347.5M361 347.5H188.5M361 347.5H532.5V44H491.5V55.5H416.5V44H361M125 347.5H83M83 347.5V329.5M83 347.5H1V276M83 288V276M83 259.5V276M83 222V204.5M83 204.5H93M83 204.5H1M139.5 204.5H130M1 204.5V276M1 276H83" stroke="black"/>
<path d="M187 25C237.725 47.3587 267.587 46.6549 323 25" stroke="#FF7B7B"/>
<path d="M187 30C237.725 52.3587 267.587 51.6549 323 30" stroke="#FF7B7B"/>
<path d="M399 72C440.774 89.6094 465.366 89.0551 511 72" stroke="#FF7B7B"/>
<path d="M399 76C440.774 94.9639 465.366 94.367 511 76" stroke="#FF7B7B"/>
<path d="M19 335C36.157 326.873 46.2575 327.128 65 335" stroke="#FF7B7B"/>
<path d="M19 333C36.157 324.873 46.2575 325.128 65 333" stroke="#FF7B7B"/>
<path d="M21 20C53.4492 37.6094 72.5522 37.0551 108 20" stroke="#FF7B7B"/>
<path d="M21 24C53.4492 42.9639 72.5522 42.367 108 24" stroke="#FF7B7B"/>
</svg>
