<svg width="590" height="316" viewBox="0 0 590 316" fill="none" xmlns="http://www.w3.org/2000/svg">
<path d="M282 1H164.5V6.5H98V1H1V137M282 1V137M282 1H333V6.5H397V1H437M282 137H253M282 137V190M204 137H1M1 137V175.5H7.5V231.5H1V315H282M282 315V190M282 315H477.5M282 190H380M423 190H437V112.5M437 112.5H444.5M437 112.5V1M489 112.5H498M498 112.5V132M498 112.5H589M498 171V195.5M498 195.5H477.5V246.5M498 195.5H589M477.5 291V315M477.5 315H589V195.5M589 195.5V112.5M589 112.5V1H552V6.5H489V1H437" stroke="black"/>
<path d="M65 16C115.725 38.3587 145.587 37.6549 201 16" stroke="#FF7B7B"/>
<path d="M311 20C352.774 37.6094 377.366 37.0551 423 20" stroke="#FF7B7B"/>
<path d="M581 175C572.873 157.843 573.128 147.743 581 129" stroke="#FF7B7B"/>
<path d="M65 21C115.725 43.3587 145.587 42.6549 201 21" stroke="#FF7B7B"/>
<path d="M311 24C352.774 42.9639 377.366 42.367 423 24" stroke="#FF7B7B"/>
<path d="M579 175C570.873 157.843 571.128 147.743 579 129" stroke="#FF7B7B"/>
<path d="M464 15C505.774 32.6094 530.366 32.0551 576 15" stroke="#FF7B7B"/>
<path d="M464 19C505.774 37.9639 530.366 37.367 576 19" stroke="#FF7B7B"/>
<path d="M21 250C38.6094 216.805 38.0551 197.263 21 161" stroke="#FF7B7B"/>
<path d="M25 250C43.9639 216.805 43.367 197.263 25 161" stroke="#FF7B7B"/>
</svg>
