<svg width="78" height="78" viewBox="0 0 78 78" fill="none" xmlns="http://www.w3.org/2000/svg">
<g filter="url(#filter0_dddddd_38_61)">
<path d="M33.2167 25H45.1167C49.65 25 53.3333 28.663 53.3333 33.1713V45.0055C53.3333 47.1727 52.4677 49.2511 50.9267 50.7835C49.3858 52.3159 47.2959 53.1768 45.1167 53.1768H33.2167C28.6833 53.1768 25 49.5138 25 45.0055V33.1713C25 31.0041 25.8657 28.9257 27.4066 27.3933C28.9475 25.8609 31.0375 25 33.2167 25ZM32.9333 27.8177C31.5807 27.8177 30.2835 28.352 29.3271 29.3032C28.3707 30.2543 27.8333 31.5444 27.8333 32.8895V45.2873C27.8333 48.0909 30.1142 50.3591 32.9333 50.3591H45.4C46.7526 50.3591 48.0498 49.8247 49.0062 48.8736C49.9627 47.9224 50.5 46.6324 50.5 45.2873V32.8895C50.5 30.0859 48.2192 27.8177 45.4 27.8177H32.9333ZM46.6042 29.9309C47.0738 29.9309 47.5242 30.1165 47.8563 30.4467C48.1884 30.777 48.375 31.2249 48.375 31.692C48.375 32.159 48.1884 32.607 47.8563 32.9372C47.5242 33.2675 47.0738 33.453 46.6042 33.453C46.1345 33.453 45.6841 33.2675 45.352 32.9372C45.0199 32.607 44.8333 32.159 44.8333 31.692C44.8333 31.2249 45.0199 30.777 45.352 30.4467C45.6841 30.1165 46.1345 29.9309 46.6042 29.9309ZM39.1667 32.0442C41.0453 32.0442 42.847 32.7863 44.1753 34.1074C45.5037 35.4284 46.25 37.2202 46.25 39.0884C46.25 40.9566 45.5037 42.7483 44.1753 44.0694C42.847 45.3904 41.0453 46.1326 39.1667 46.1326C37.2881 46.1326 35.4864 45.3904 34.158 44.0694C32.8296 42.7483 32.0833 40.9566 32.0833 39.0884C32.0833 37.2202 32.8296 35.4284 34.158 34.1074C35.4864 32.7863 37.2881 32.0442 39.1667 32.0442ZM39.1667 34.8619C38.0395 34.8619 36.9585 35.3072 36.1615 36.0998C35.3644 36.8924 34.9167 37.9674 34.9167 39.0884C34.9167 40.2093 35.3644 41.2844 36.1615 42.077C36.9585 42.8696 38.0395 43.3149 39.1667 43.3149C40.2938 43.3149 41.3748 42.8696 42.1719 42.077C42.9689 41.2844 43.4167 40.2093 43.4167 39.0884C43.4167 37.9674 42.9689 36.8924 42.1719 36.0998C41.3748 35.3072 40.2938 34.8619 39.1667 34.8619Z" fill="white"/>
</g>
<defs>
<filter id="filter0_dddddd_38_61" x="0.723999" y="0.723999" width="76.8853" height="76.7288" filterUnits="userSpaceOnUse" color-interpolation-filters="sRGB">
<feFlood flood-opacity="0" result="BackgroundImageFix"/>
<feColorMatrix in="SourceAlpha" type="matrix" values="0 0 0 0 0 0 0 0 0 0 0 0 0 0 0 0 0 0 127 0" result="hardAlpha"/>
<feOffset/>
<feGaussianBlur stdDeviation="0.289"/>
<feColorMatrix type="matrix" values="0 0 0 0 0.384314 0 0 0 0 0.384314 0 0 0 0 0.384314 0 0 0 1 0"/>
<feBlend mode="normal" in2="BackgroundImageFix" result="effect1_dropShadow_38_61"/>
<feColorMatrix in="SourceAlpha" type="matrix" values="0 0 0 0 0 0 0 0 0 0 0 0 0 0 0 0 0 0 127 0" result="hardAlpha"/>
<feOffset/>
<feGaussianBlur stdDeviation="0.578"/>
<feColorMatrix type="matrix" values="0 0 0 0 0.384314 0 0 0 0 0.384314 0 0 0 0 0.384314 0 0 0 1 0"/>
<feBlend mode="normal" in2="effect1_dropShadow_38_61" result="effect2_dropShadow_38_61"/>
<feColorMatrix in="SourceAlpha" type="matrix" values="0 0 0 0 0 0 0 0 0 0 0 0 0 0 0 0 0 0 127 0" result="hardAlpha"/>
<feOffset/>
<feGaussianBlur stdDeviation="2.023"/>
<feColorMatrix type="matrix" values="0 0 0 0 0.384314 0 0 0 0 0.384314 0 0 0 0 0.384314 0 0 0 1 0"/>
<feBlend mode="normal" in2="effect2_dropShadow_38_61" result="effect3_dropShadow_38_61"/>
<feColorMatrix in="SourceAlpha" type="matrix" values="0 0 0 0 0 0 0 0 0 0 0 0 0 0 0 0 0 0 127 0" result="hardAlpha"/>
<feOffset/>
<feGaussianBlur stdDeviation="4.046"/>
<feColorMatrix type="matrix" values="0 0 0 0 0.384314 0 0 0 0 0.384314 0 0 0 0 0.384314 0 0 0 1 0"/>
<feBlend mode="normal" in2="effect3_dropShadow_38_61" result="effect4_dropShadow_38_61"/>
<feColorMatrix in="SourceAlpha" type="matrix" values="0 0 0 0 0 0 0 0 0 0 0 0 0 0 0 0 0 0 127 0" result="hardAlpha"/>
<feOffset/>
<feGaussianBlur stdDeviation="6.936"/>
<feColorMatrix type="matrix" values="0 0 0 0 0.384314 0 0 0 0 0.384314 0 0 0 0 0.384314 0 0 0 1 0"/>
<feBlend mode="normal" in2="effect4_dropShadow_38_61" result="effect5_dropShadow_38_61"/>
<feColorMatrix in="SourceAlpha" type="matrix" values="0 0 0 0 0 0 0 0 0 0 0 0 0 0 0 0 0 0 127 0" result="hardAlpha"/>
<feOffset/>
<feGaussianBlur stdDeviation="12.138"/>
<feColorMatrix type="matrix" values="0 0 0 0 0.384314 0 0 0 0 0.384314 0 0 0 0 0.384314 0 0 0 1 0"/>
<feBlend mode="normal" in2="effect5_dropShadow_38_61" result="effect6_dropShadow_38_61"/>
<feBlend mode="normal" in="SourceGraphic" in2="effect6_dropShadow_38_61" result="shape"/>
</filter>
</defs>
</svg>
